HIERARCHY
ROOT hip
{
	OFFSET 0.000000 0.000000 0.000000 
	CHANNELS 6 Xposition Yposition Zposition Xrotation Zrotation Yrotation
	JOINT abdomen
	{
		OFFSET 0.000000 3.402643 0.000000 
		CHANNELS 3 Xrotation Zrotation Yrotation
		JOINT chest
		{
			OFFSET 0.000000 8.438565 -0.680529 
			CHANNELS 3 Xrotation Zrotation Yrotation
			JOINT neck
			{
				OFFSET 0.000000 10.207942 -0.272212 
				CHANNELS 3 Xrotation Zrotation Yrotation
				JOINT head
				{
					OFFSET 0.000000 3.130431 0.000000 
					CHANNELS 3 Xrotation Zrotation Yrotation
					End Site
					{
						OFFSET 0.000000 3.130435 0.000000 
					}
				}
			}
			JOINT lCollar
			{
				OFFSET 3.470700 6.669187 -0.816635 
				CHANNELS 3 Yrotation Zrotation Xrotation
				JOINT lShldr
				{
					OFFSET 3.198488 0.000000 0.000000 
					CHANNELS 3 Zrotation Yrotation Xrotation
					JOINT lForeArm
					{
						OFFSET 10.139888 0.000000 0.000000 
						CHANNELS 3 Yrotation Zrotation Xrotation
						JOINT lHand
						{
							OFFSET 8.370511 0.000000 0.000000 
							CHANNELS 3 Zrotation Yrotation Xrotation
							End Site
							{
								OFFSET 4.083176 0.000000 0.000000 
							}
						}
					}
				}
			}
			JOINT rCollar
			{
				OFFSET -3.470700 6.669187 -0.816635 
				CHANNELS 3 Yrotation Zrotation Xrotation
				JOINT rShldr
				{
					OFFSET -3.198488 0.000000 0.000000 
					CHANNELS 3 Zrotation Yrotation Xrotation
					JOINT rForeArm
					{
						OFFSET -10.139888 0.000000 0.000000 
						CHANNELS 3 Yrotation Zrotation Xrotation
						JOINT rHand
						{
							OFFSET -8.370511 0.000000 0.000000 
							CHANNELS 3 Zrotation Yrotation Xrotation
							End Site
							{
								OFFSET -4.083176 0.000000 0.000000 
							}
						}
					}
				}
			}
		}
	}
	JOINT lThigh
	{
		OFFSET 5.308129 -1.633274 1.361059 
		CHANNELS 3 Xrotation Zrotation Yrotation
		JOINT lShin
		{
			OFFSET -2.041588 -20.007561 0.000000 
			CHANNELS 3 Xrotation Zrotation Yrotation
			JOINT lFoot
			{
				OFFSET 0.000000 -19.190928 -1.224953 
				CHANNELS 3 Xrotation Yrotation Zrotation
				End Site
				{
					OFFSET 0.000000 -2.449906 4.627600 
				}
			}
		}
	}
	JOINT rThigh
	{
		OFFSET -5.308129 -1.633274 1.361059 
		CHANNELS 3 Xrotation Zrotation Yrotation
		JOINT rShin
		{
			OFFSET 2.041588 -20.007561 0.000000 
			CHANNELS 3 Xrotation Zrotation Yrotation
			JOINT rFoot
			{
				OFFSET 0.000000 -19.190928 -1.224953 
				CHANNELS 3 Xrotation Yrotation Zrotation
				End Site
				{
					OFFSET 0.000000 -2.449906 4.627600 
				}
			}
		}
	}
}
MOTION
Frames: 11
Frame Time: 0.033333
13.966963 41.123276 151.875809 12.609538 -6.415083 -13.053717 1.321421 -4.422109 -3.988447 -20.839844 0.000000 0.000000 -12.105200 15.712681 -4.113656 8.586096 -4.084739 0.307924 -4.754608 -0.109225 -0.002657 -24.802481 -20.218721 -27.219830 -56.032574 4.167837 11.969787 10.524383 -7.236125 20.807554 4.754608 0.109225 -0.002676 68.728714 -10.487471 -8.708790 1.758122 0.171904 55.168736 9.470102 24.840136 67.135750 -28.446077 15.507280 -8.410359 50.012993 13.089618 1.224137 -24.379957 27.346478 -19.824011 -30.008064 -7.811883 2.658167 41.765244 -1.676204 5.717314 -23.112703 -5.664993 14.336010 
13.943739 41.092667 151.891129 12.626805 -6.319300 -13.092183 1.430787 -4.550028 -3.947401 -20.839844 0.000000 0.000000 -12.030049 15.811613 -4.117371 8.586096 -4.084739 0.307924 -4.754608 -0.109225 -0.002657 -24.974922 -20.169302 -27.078047 -55.696239 4.069090 12.320884 10.296792 -6.919727 21.319777 4.754608 0.109225 -0.002676 68.703934 -10.401562 -8.697117 1.754689 0.162397 55.217522 9.503757 24.812767 67.259956 -28.493904 15.506997 -8.335275 50.138218 13.033148 1.258993 -24.472893 27.340145 -19.842041 -30.129509 -7.860032 2.687563 41.989105 -1.698959 5.714762 -23.242641 -5.716287 14.404701 
13.924208 41.052544 151.902237 12.654154 -6.232822 -13.095798 1.578906 -4.680633 -3.929431 -20.839844 0.000000 0.000000 -11.947299 15.871833 -4.183074 8.586096 -4.084739 0.307924 -4.754608 -0.109225 -0.002657 -25.386917 -20.075556 -26.836811 -55.196526 3.957488 12.516868 10.030157 -6.793278 21.583715 4.754608 0.109225 -0.002676 68.694832 -10.314034 -8.724368 1.754689 0.162397 55.217522 9.618622 25.100397 67.424332 -28.601360 15.467919 -8.314706 50.308842 13.002522 1.298766 -24.566761 27.285416 -19.838928 -30.319750 -7.929058 2.642263 42.299706 -1.734646 5.728928 -23.410929 -5.676258 14.384264 
13.908369 40.994484 151.910141 12.682450 -6.184471 -13.049257 1.736354 -4.784696 -3.930780 -20.839844 0.000000 0.000000 -11.866396 15.905448 -4.292887 8.586096 -4.084739 0.307924 -4.754608 -0.109225 -0.002657 -26.011005 -19.974731 -26.532949 -54.055744 3.877337 13.242016 8.660779 -7.134680 22.825495 4.754608 0.109225 -0.002676 68.776833 -10.258762 -8.734950 1.760800 0.164577 54.972809 9.646353 25.458061 67.196060 -28.761477 15.416840 -8.315906 50.563793 13.049753 1.324081 -24.721832 27.211782 -19.844240 -30.549538 -8.025822 2.555527 42.750473 -1.715380 5.728051 -23.659971 -5.533353 14.236175 
13.894644 40.918480 151.913803 12.692037 -6.174707 -12.979816 1.923108 -4.839787 -3.934245 -20.839844 0.000000 0.000000 -11.793698 15.954193 -4.365299 8.586096 -4.084739 0.307924 -4.754608 -0.109225 -0.002657 -26.883276 -19.883375 -26.077253 -51.948189 3.709299 14.920463 6.911081 -8.514015 25.482264 4.754608 0.109225 -0.002676 68.881508 -10.241017 -8.728516 1.769453 0.176994 54.650066 9.604925 25.505474 66.772972 -28.998817 15.427813 -8.303048 50.941738 13.080118 1.296035 -24.981773 27.077068 -19.810818 -30.836184 -8.075372 2.516241 43.296841 -1.754471 5.707860 -23.952787 -5.474691 14.023448 
13.869314 40.809219 151.919632 12.673095 -6.203763 -12.886451 2.149233 -4.868832 -3.932924 -20.839844 0.000000 0.000000 -11.779263 16.017456 -4.406235 8.586096 -4.084739 0.307924 -4.754608 -0.109225 -0.002657 -28.026709 -19.697748 -25.296227 -49.248535 3.298904 16.876022 5.677588 -9.639077 28.246742 4.754608 0.109225 -0.002676 68.976395 -10.224021 -8.721776 1.774877 0.189589 54.376411 9.221679 25.151695 66.267235 -29.294798 15.526505 -8.224110 51.491138 13.070913 1.293724 -25.281549 26.874355 -19.865454 -31.126554 -8.133286 2.431346 43.971893 -1.735096 5.722571 -24.307743 -5.403051 13.988610 
13.825506 40.655090 151.935440 12.605750 -6.262600 -12.774588 2.444096 -4.871656 -3.928054 -20.839844 0.000000 0.000000 -11.863087 16.094984 -4.409078 8.586096 -4.084739 0.307924 -4.754608 -0.109225 -0.002657 -29.402565 -19.346613 -24.156981 -46.101582 2.585866 18.992247 3.514327 -9.622010 30.958929 4.754608 0.109225 -0.002676 68.993790 -10.154392 -8.709570 1.780952 0.189753 54.249001 8.899228 24.745649 66.004028 -29.643068 15.720545 -8.053330 52.247784 13.089828 1.306557 -25.748421 26.593657 -19.915789 -31.452471 -8.222159 2.265275 44.922169 -1.695257 5.723099 -24.866421 -5.208883 13.863302 
13.766386 40.452934 151.962906 12.508935 -6.322176 -12.639829 2.797784 -4.883765 -3.929941 -20.839844 0.000000 0.000000 -12.036390 16.172972 -4.404507 8.586096 -4.084739 0.307924 -4.754608 -0.109225 -0.002657 -30.796783 -18.651402 -22.678425 -42.566761 1.595228 21.914696 -0.868887 -8.285045 34.459038 4.754608 0.109225 -0.002676 68.888527 -9.986679 -8.703914 1.777700 0.189823 54.307812 8.945930 24.687130 66.195381 -30.020412 15.963412 -7.867076 53.197746 13.097882 1.302635 -26.319540 26.255033 -19.961023 -31.871046 -8.338951 2.087315 46.206867 -1.618048 5.710524 -25.609343 -4.930354 13.635143 
13.687223 40.189026 152.006729 12.381941 -6.353877 -12.485606 3.170300 -4.920657 -3.972608 -20.839844 0.000000 0.000000 -12.258113 16.210320 -4.402765 8.586096 -4.084739 0.307924 -4.754608 -0.109225 -0.002657 -32.125595 -17.440868 -20.739031 -39.045994 0.261984 25.570988 -6.891052 -6.927241 38.045624 4.754608 0.109225 -0.002676 68.750725 -9.782204 -8.715091 1.772077 0.179583 54.444679 8.917626 24.792450 66.514030 -30.506067 16.210255 -7.669096 54.413342 13.100471 1.360600 -27.069199 25.878479 -20.044821 -32.383945 -8.582064 1.745775 47.826420 -1.461766 5.713442 -26.572630 -4.549023 13.423124 
13.591681 39.875500 152.063705 12.244185 -6.347635 -12.321928 3.503173 -4.950592 -4.029702 -20.839844 0.000000 0.000000 -12.448265 16.207663 -4.403508 8.586096 -4.084739 0.307924 -4.754608 -0.109225 -0.002657 -33.381630 -15.511145 -18.099136 -36.040279 -1.563852 30.073498 -12.714216 -6.590080 41.207603 4.754608 0.109225 -0.002676 68.593063 -9.540466 -8.693815 1.764221 0.168733 54.659847 8.983022 24.715204 66.938622 -31.074741 16.500456 -7.414790 55.826813 13.050864 1.375109 -27.981249 25.403673 -20.082434 -33.016018 -8.993418 1.309261 49.719902 -1.237301 5.760668 -27.663982 -4.028080 13.152633 
13.492445 39.537159 152.122849 12.105301 -6.293606 -12.167638 3.767364 -4.961302 -4.078358 -20.839844 0.000000 0.000000 -12.594767 16.148050 -4.393331 8.586096 -4.084739 0.307924 -4.754608 -0.109225 -0.002657 -34.428253 -12.822670 -14.269076 -33.998676 -4.332702 36.196732 -16.227018 -6.091792 43.833977 4.754608 0.109225 -0.002676 68.386658 -9.302464 -8.672829 1.753497 0.148012 54.933533 9.198545 24.618595 67.453621 -31.676283 16.824837 -7.102534 57.302876 12.963127 1.345486 -28.962030 24.823103 -20.126827 -33.684780 -9.441736 0.956738 51.705723 -1.091370 5.852725 -28.828163 -3.572606 12.812072 
